<?xml version="1.0" encoding="UTF-8" standalone="no"?>
<svg viewBox="0 0 546 244" width="546" height="244" version="1.1" id="svg4" xmlns="http://www.w3.org/2000/svg" xmlns:svg="http://www.w3.org/2000/svg">
  <defs id="defs1">
    <clipPath id="artboard-8287157921694448517">
      <rect x="0" y="0" width="546" height="244" id="rect1" />
    </clipPath>
  </defs>
  <g clip-path="url(#artboard-8287157921694448517)" id="g3" style="fill:#ffffff">
    <g id="g2" style="fill:#ffffff">
      <path d="m 103.20775,34.076563 c 0,0 13.20312,0 13.20312,0 0,0 0,3.046875 0,3.046875 0,0 -13.20312,0 -13.20312,0 z m 15.6,0 c 0,0 13.20312,0 13.20312,0 0,0 0,3.046875 0,3.046875 0,0 -13.20312,0 -13.20312,0 z m 15.6,0 c 0,0 13.20312,0 13.20312,0 0,0 0,3.046875 0,3.046875 0,0 -13.20312,0 -13.20312,0 z m 46.8,0 c 0,0 13.20312,0 13.20312,0 0,0 0,3.046875 0,3.046875 0,0 -13.20312,0 -13.20312,0 z m 15.6,0 c 0,0 13.20313,0 13.20313,0 0,0 0,3.046875 0,3.046875 0,0 -13.20313,0 -13.20313,0 z m 15.60001,0 c 0,0 13.20313,0 13.20313,0 0,0 0,3.046875 0,3.046875 0,0 -13.20313,0 -13.20313,0 z m 15.60001,0 c 0,0 13.20312,0 13.20312,0 0,0 0,3.046875 0,3.046875 0,0 -13.20312,0 -13.20312,0 z m 15.6,0 c 0,0 13.20313,0 13.20313,0 0,0 0,3.046875 0,3.046875 0,0 -13.20313,0 -13.20313,0 z m 15.60001,0 c 0,0 13.20312,0 13.20312,0 0,0 0,3.046875 0,3.046875 0,0 -13.20312,0 -13.20312,0 z m 15.60001,0 c 0,0 13.20312,0 13.20312,0 0,0 0,3.046875 0,3.046875 0,0 -13.20312,0 -13.20312,0 z m 46.80001,0 c 0,0 13.20313,0 13.20313,0 0,0 0,3.046875 0,3.046875 0,0 -13.20313,0 -13.20313,0 z m 15.60001,0 c 0,0 13.20312,0 13.20312,0 0,0 0,3.046875 0,3.046875 0,0 -13.20312,0 -13.20312,0 z m 62.40002,0 c 0,0 13.20313,0 13.20313,0 0,0 0,3.046875 0,3.046875 0,0 -13.20313,0 -13.20313,0 z m 15.60001,0 c 0,0 13.20312,0 13.20312,0 0,0 0,3.046875 0,3.046875 0,0 -13.20312,0 -13.20312,0 z m 46.80002,0 c 0,0 13.20312,0 13.20312,0 0,0 0,3.046875 0,3.046875 0,0 -13.20312,0 -13.20312,0 z m 15.6,0 c 0,0 13.20313,0 13.20313,0 0,0 0,3.046875 0,3.046875 0,0 -13.20313,0 -13.20313,0 z m 15.60001,0 c 0,0 13.20313,0 13.20313,0 0,0 0,3.046875 0,3.046875 0,0 -13.20313,0 -13.20313,0 z M 95.592125,42.235937 c 0,0 0,22.796875 0,22.796875 0,0 -3.984375,0 -3.984375,0 0,0 0,-22.5625 0,-22.5625 z m 62.399995,0 c 0,0 0,22.796875 0,22.796875 0,0 -3.98438,0 -3.98438,0 0,0 0,-22.5625 0,-22.5625 z m 15.6,0 c 0,0 0,22.796875 0,22.796875 0,0 -3.98438,0 -3.98438,0 0,0 0,-22.5625 0,-22.5625 z m 124.80005,0 c 0,0 0,22.796875 0,22.796875 0,0 -3.98438,0 -3.98438,0 0,0 0,-22.5625 0,-22.5625 z m 15.6,0 c 0,0 0,22.796875 0,22.796875 0,0 -3.98437,0 -3.98437,0 0,0 0,-22.5625 0,-22.5625 z m 46.80002,0 c 0,0 0,22.796875 0,22.796875 0,0 -3.98437,0 -3.98437,0 0,0 0,-22.5625 0,-22.5625 z m 31.20001,0 c 0,0 0,22.796875 0,22.796875 0,0 -3.98437,0 -3.98437,0 0,0 0,-22.5625 0,-22.5625 z m 46.80002,0 c 0,0 0,22.796875 0,22.796875 0,0 -3.98437,0 -3.98437,0 0,0 0,-22.5625 0,-22.5625 z m 15.60001,0 c 0,0 0,22.796875 0,22.796875 0,0 -3.98438,0 -3.98438,0 0,0 0,-22.5625 0,-22.5625 z m 62.40002,0 c 0,0 0,22.796875 0,22.796875 0,0 -3.98437,0 -3.98437,0 0,0 0,-22.5625 0,-22.5625 z M 95.592125,71.03594 c 0,0 0,22.796875 0,22.796875 0,0 -3.984375,0 -3.984375,0 0,0 0,-22.5625 0,-22.5625 z m 62.399995,0 c 0,0 0,22.796875 0,22.796875 0,0 -3.98438,0 -3.98438,0 0,0 0,-22.5625 0,-22.5625 z m 15.6,0 c 0,0 0,22.796875 0,22.796875 0,0 -3.98438,0 -3.98438,0 0,0 0,-22.5625 0,-22.5625 z m 38.81564,20.640625 c 0,0 13.20313,0 13.20313,0 0,0 0,3.046875 0,3.046875 0,0 -13.20313,0 -13.20313,0 z m 15.60001,0 c 0,0 13.20312,0 13.20312,0 0,0 0,3.046875 0,3.046875 0,0 -13.20312,0 -13.20312,0 z m 15.6,0 c 0,0 13.20313,0 13.20313,0 0,0 0,3.046875 0,3.046875 0,0 -13.20313,0 -13.20313,0 z m 15.60001,0 c 0,0 13.20312,0 13.20312,0 0,0 0,3.046875 0,3.046875 0,0 -13.20312,0 -13.20312,0 z m 15.60001,0 c 0,0 13.20312,0 13.20312,0 0,0 0,3.046875 0,3.046875 0,0 -13.20312,0 -13.20312,0 z M 298.39217,71.03594 c 0,0 0,22.796875 0,22.796875 0,0 -3.98438,0 -3.98438,0 0,0 0,-22.5625 0,-22.5625 z m 15.6,0 c 0,0 0,22.796875 0,22.796875 0,0 -3.98437,0 -3.98437,0 0,0 0,-22.5625 0,-22.5625 z m 46.80002,0 c 0,0 0,22.796875 0,22.796875 0,0 -3.98437,0 -3.98437,0 0,0 0,-22.5625 0,-22.5625 z m 7.61563,20.640625 c 0,0 13.20313,0 13.20313,0 0,0 0,3.046875 0,3.046875 0,0 -13.20313,0 -13.20313,0 z M 391.9922,71.03594 c 0,0 0,22.796875 0,22.796875 0,0 -3.98437,0 -3.98437,0 0,0 0,-22.5625 0,-22.5625 z m 46.80002,0 c 0,0 0,22.796875 0,22.796875 0,0 -3.98437,0 -3.98437,0 0,0 0,-22.5625 0,-22.5625 z m 15.60001,0 c 0,0 0,22.796875 0,22.796875 0,0 -3.98438,0 -3.98438,0 0,0 0,-22.5625 0,-22.5625 z m 62.40002,0 c 0,0 0,22.796875 0,22.796875 0,0 -3.98437,0 -3.98437,0 0,0 0,-22.5625 0,-22.5625 z M 95.592125,99.835943 c 0,0 0,22.796877 0,22.796877 0,0 -3.984375,0 -3.984375,0 0,0 0,-22.5625 0,-22.5625 z m 62.399995,0 c 0,0 0,22.796877 0,22.796877 0,0 -3.98438,0 -3.98438,0 0,0 0,-22.5625 0,-22.5625 z m 15.6,0 c 0,0 0,22.796877 0,22.796877 0,0 -3.98438,0 -3.98438,0 0,0 0,-22.5625 0,-22.5625 z m 31.20001,0 c 0,0 0,22.796877 0,22.796877 0,0 -3.98438,0 -3.98438,0 0,0 0,-22.5625 0,-22.5625 z m 7.61563,20.640627 c 0,0 13.20313,0 13.20313,0 0,0 0,3.04687 0,3.04687 0,0 -13.20313,0 -13.20313,0 z m 15.60001,0 c 0,0 13.20312,0 13.20312,0 0,0 0,3.04687 0,3.04687 0,0 -13.20312,0 -13.20312,0 z m 15.6,0 c 0,0 13.20313,0 13.20313,0 0,0 0,3.04687 0,3.04687 0,0 -13.20313,0 -13.20313,0 z m 15.60001,0 c 0,0 13.20312,0 13.20312,0 0,0 0,3.04687 0,3.04687 0,0 -13.20312,0 -13.20312,0 z m 15.60001,0 c 0,0 13.20312,0 13.20312,0 0,0 0,3.04687 0,3.04687 0,0 -13.20312,0 -13.20312,0 z m 39.18438,-20.640627 c 0,0 0,22.796877 0,22.796877 0,0 -3.98437,0 -3.98437,0 0,0 0,-22.5625 0,-22.5625 z m 124.80005,0 c 0,0 0,22.796877 0,22.796877 0,0 -3.98437,0 -3.98437,0 0,0 0,-22.5625 0,-22.5625 z m 15.60001,0 c 0,0 0,22.796877 0,22.796877 0,0 -3.98438,0 -3.98438,0 0,0 0,-22.5625 0,-22.5625 z m 62.40002,0 c 0,0 0,22.796877 0,22.796877 0,0 -3.98437,0 -3.98437,0 0,0 0,-22.5625 0,-22.5625 z M 40.807749,149.27657 c 0,0 13.203125,0 13.203125,0 0,0 0,3.04688 0,3.04688 0,0 -13.203125,0 -13.203125,0 z m 15.6,0 c 0,0 13.203125,0 13.203125,0 0,0 0,3.04688 0,3.04688 0,0 -13.203125,0 -13.203125,0 z m 15.600002,0 c 0,0 13.203125,0 13.203125,0 0,0 0,3.04688 0,3.04688 0,0 -13.203125,0 -13.203125,0 z m 23.584374,-20.64062 c 0,0 0,22.79687 0,22.79687 0,0 -3.984375,0 -3.984375,0 0,0 0,-22.5625 0,-22.5625 z m 62.399995,0 c 0,0 0,22.79687 0,22.79687 0,0 -3.98438,0 -3.98438,0 0,0 0,-22.5625 0,-22.5625 z m 15.6,0 c 0,0 0,22.79687 0,22.79687 0,0 -3.98438,0 -3.98438,0 0,0 0,-22.5625 0,-22.5625 z m 7.61563,20.64062 c 0,0 13.20312,0 13.20312,0 0,0 0,3.04688 0,3.04688 0,0 -13.20312,0 -13.20312,0 z m 15.6,0 c 0,0 13.20313,0 13.20313,0 0,0 0,3.04688 0,3.04688 0,0 -13.20313,0 -13.20313,0 z m 15.60001,0 c 0,0 13.20313,0 13.20313,0 0,0 0,3.04688 0,3.04688 0,0 -13.20313,0 -13.20313,0 z m 15.60001,0 c 0,0 13.20312,0 13.20312,0 0,0 0,3.04688 0,3.04688 0,0 -13.20312,0 -13.20312,0 z m 15.6,0 c 0,0 13.20313,0 13.20313,0 0,0 0,3.04688 0,3.04688 0,0 -13.20313,0 -13.20313,0 z m 54.7844,-20.64062 c 0,0 0,22.79687 0,22.79687 0,0 -3.98438,0 -3.98438,0 0,0 0,-22.5625 0,-22.5625 z m 15.6,0 c 0,0 0,22.79687 0,22.79687 0,0 -3.98437,0 -3.98437,0 0,0 0,-22.5625 0,-22.5625 z m 124.80005,0 c 0,0 0,22.79687 0,22.79687 0,0 -3.98437,0 -3.98437,0 0,0 0,-22.5625 0,-22.5625 z m 15.60001,0 c 0,0 0,22.79687 0,22.79687 0,0 -3.98438,0 -3.98438,0 0,0 0,-22.5625 0,-22.5625 z m 62.40002,0 c 0,0 0,22.79687 0,22.79687 0,0 -3.98437,0 -3.98437,0 0,0 0,-22.5625 0,-22.5625 z M 33.192123,157.43593 c 0,0 0,22.79688 0,22.79688 0,0 -3.984375,0 -3.984375,0 0,0 0,-22.5625 0,-22.5625 z m 124.799997,0 c 0,0 0,22.79688 0,22.79688 0,0 -3.98438,0 -3.98438,0 0,0 0,-22.5625 0,-22.5625 z m 23.21563,20.64063 c 0,0 13.20312,0 13.20312,0 0,0 0,3.04687 0,3.04687 0,0 -13.20312,0 -13.20312,0 z m 15.6,0 c 0,0 13.20313,0 13.20313,0 0,0 0,3.04687 0,3.04687 0,0 -13.20313,0 -13.20313,0 z m 15.60001,0 c 0,0 13.20313,0 13.20313,0 0,0 0,3.04687 0,3.04687 0,0 -13.20313,0 -13.20313,0 z m 15.60001,0 c 0,0 13.20312,0 13.20312,0 0,0 0,3.04687 0,3.04687 0,0 -13.20312,0 -13.20312,0 z m 15.6,0 c 0,0 13.20313,0 13.20313,0 0,0 0,3.04687 0,3.04687 0,0 -13.20313,0 -13.20313,0 z m 23.58438,-20.64063 c 0,0 0,22.79688 0,22.79688 0,0 -3.98437,0 -3.98437,0 0,0 0,-22.5625 0,-22.5625 z m 31.20002,0 c 0,0 0,22.79688 0,22.79688 0,0 -3.98438,0 -3.98438,0 0,0 0,-22.5625 0,-22.5625 z m 31.20001,0 c 0,0 0,22.79688 0,22.79688 0,0 -3.98438,0 -3.98438,0 0,0 0,-22.5625 0,-22.5625 z m 93.60003,0 c 0,0 0,22.79688 0,22.79688 0,0 -3.98437,0 -3.98437,0 0,0 0,-22.5625 0,-22.5625 z m 31.20002,0 c 0,0 0,22.79688 0,22.79688 0,0 -3.98438,0 -3.98438,0 0,0 0,-22.5625 0,-22.5625 z m 62.40002,0 c 0,0 0,22.79688 0,22.79688 0,0 -3.98437,0 -3.98437,0 0,0 0,-22.5625 0,-22.5625 z M 33.192123,186.23594 c 0,0 0,22.79687 0,22.79687 0,0 -3.984375,0 -3.984375,0 0,0 0,-22.5625 0,-22.5625 z m 7.615626,20.64062 c 0,0 13.203125,0 13.203125,0 0,0 0,3.04688 0,3.04688 0,0 -13.203125,0 -13.203125,0 z m 15.6,0 c 0,0 13.203125,0 13.203125,0 0,0 0,3.04688 0,3.04688 0,0 -13.203125,0 -13.203125,0 z m 15.600002,0 c 0,0 13.203125,0 13.203125,0 0,0 0,3.04688 0,3.04688 0,0 -13.203125,0 -13.203125,0 z m 15.599999,0 c 0,0 13.20312,0 13.20312,0 0,0 0,3.04688 0,3.04688 0,0 -13.20312,0 -13.20312,0 z m 15.6,0 c 0,0 13.20312,0 13.20312,0 0,0 0,3.04688 0,3.04688 0,0 -13.20312,0 -13.20312,0 z m 15.6,0 c 0,0 13.20312,0 13.20312,0 0,0 0,3.04688 0,3.04688 0,0 -13.20312,0 -13.20312,0 z m 15.6,0 c 0,0 13.20312,0 13.20312,0 0,0 0,3.04688 0,3.04688 0,0 -13.20312,0 -13.20312,0 z m 23.58437,-20.64062 c 0,0 0,22.79687 0,22.79687 0,0 -3.98438,0 -3.98438,0 0,0 0,-22.5625 0,-22.5625 z m 15.6,0 c 0,0 0,22.79687 0,22.79687 0,0 -3.98438,0 -3.98438,0 0,0 0,-22.5625 0,-22.5625 z m 7.61563,20.64062 c 0,0 13.20312,0 13.20312,0 0,0 0,3.04688 0,3.04688 0,0 -13.20312,0 -13.20312,0 z m 15.6,0 c 0,0 13.20313,0 13.20313,0 0,0 0,3.04688 0,3.04688 0,0 -13.20313,0 -13.20313,0 z m 15.60001,0 c 0,0 13.20313,0 13.20313,0 0,0 0,3.04688 0,3.04688 0,0 -13.20313,0 -13.20313,0 z m 15.60001,0 c 0,0 13.20312,0 13.20312,0 0,0 0,3.04688 0,3.04688 0,0 -13.20312,0 -13.20312,0 z m 15.6,0 c 0,0 13.20313,0 13.20313,0 0,0 0,3.04688 0,3.04688 0,0 -13.20313,0 -13.20313,0 z m 15.60001,0 c 0,0 13.20312,0 13.20312,0 0,0 0,3.04688 0,3.04688 0,0 -13.20312,0 -13.20312,0 z m 15.60001,0 c 0,0 13.20312,0 13.20312,0 0,0 0,3.04688 0,3.04688 0,0 -13.20312,0 -13.20312,0 z m 23.58438,-20.64062 c 0,0 0,22.79687 0,22.79687 0,0 -3.98438,0 -3.98438,0 0,0 0,-22.5625 0,-22.5625 z m 46.80001,0 c 0,0 0,22.79687 0,22.79687 0,0 -3.98437,0 -3.98437,0 0,0 0,-22.5625 0,-22.5625 z m 7.61564,20.64062 c 0,0 13.20312,0 13.20312,0 0,0 0,3.04688 0,3.04688 0,0 -13.20312,0 -13.20312,0 z m 15.6,0 c 0,0 13.20313,0 13.20313,0 0,0 0,3.04688 0,3.04688 0,0 -13.20313,0 -13.20313,0 z m 15.60001,0 c 0,0 13.20312,0 13.20312,0 0,0 0,3.04688 0,3.04688 0,0 -13.20312,0 -13.20312,0 z m 23.58438,-20.64062 c 0,0 0,22.79687 0,22.79687 0,0 -3.98438,0 -3.98438,0 0,0 0,-22.5625 0,-22.5625 z m 46.80002,0 c 0,0 0,22.79687 0,22.79687 0,0 -3.98438,0 -3.98438,0 0,0 0,-22.5625 0,-22.5625 z m 7.61563,20.64062 c 0,0 13.20312,0 13.20312,0 0,0 0,3.04688 0,3.04688 0,0 -13.20312,0 -13.20312,0 z m 15.6,0 c 0,0 13.20313,0 13.20313,0 0,0 0,3.04688 0,3.04688 0,0 -13.20313,0 -13.20313,0 z m 15.60001,0 c 0,0 13.20313,0 13.20313,0 0,0 0,3.04688 0,3.04688 0,0 -13.20313,0 -13.20313,0 z m 23.58438,-20.64062 c 0,0 0,22.79687 0,22.79687 0,0 -3.98437,0 -3.98437,0 0,0 0,-22.5625 0,-22.5625 z" fill="#000000" id="path2" style="fill:#ffffff" />
    </g>
  </g>
</svg>
